<?xml version="1.0" encoding="utf-8"?>
<!-- Generator: Adobe Illustrator 19.0.0, SVG Export Plug-In . SVG Version: 6.00 Build 0)  -->
<svg version="1.1" id="Capa_1" xmlns="http://www.w3.org/2000/svg" xmlns:xlink="http://www.w3.org/1999/xlink" x="0px" y="0px"
	 viewBox="-238 369 134.3 56" style="enable-background:new -238 369 134.3 56;" xml:space="preserve">
<style type="text/css">
	.st0{fill:#EE1D00;}
</style>
<title>Logo</title>
<path class="st0" d="M-169.4,386.2c0,2.8,2.2,5,5,5c2.8,0,5-2.2,5-5s-2.2-5-5-5C-167.1,381.2-169.4,383.4-169.4,386.2L-169.4,386.2z
	"/>
<path class="st0" d="M-216.1,396.4v9.2c0,4.3,1.6,6.7,4.9,6.7c2.3,0,4.3-1.5,5-3.7v3.1c0,0.2,0.2,0.4,0.4,0.4c0.2,0,0.4-0.2,0.4-0.4
	v-15.4c0-0.2-0.2-0.4-0.4-0.4c-0.2,0-0.4,0.2-0.4,0.4l0,0v8.9c0,3.2-1.9,6.2-4.9,6.2c-3.1,0-4.2-2.2-4.2-6.1v-9.1
	c0-0.2-0.2-0.4-0.4-0.4S-216.2,396.2-216.1,396.4L-216.1,396.4L-216.1,396.4L-216.1,396.4z"/>
<path class="st0" d="M-200.3,411.8c0,0.2,0.2,0.4,0.4,0.4s0.4-0.2,0.4-0.4v-23.7c0-0.2-0.2-0.4-0.4-0.4s-0.4,0.2-0.4,0.4V411.8
	L-200.3,411.8z"/>
<path class="st0" d="M-221,396.4c0-0.2-0.2-0.4-0.4-0.4c-0.2,0-0.4,0.2-0.4,0.4l0,0v3.4c-0.6-2.3-2.6-3.9-4.9-4
	c-3.5,0-5.5,3.8-5.5,8.3s1.9,8.3,5.5,8.3c2.3-0.2,4.3-1.8,4.9-4v3.4c0,0.2,0.2,0.4,0.4,0.4c0.2,0,0.4-0.2,0.4-0.4V396.4L-221,396.4z
	 M-226.7,411.6c-2.8,0-4.7-3-4.7-7.5s1.9-7.5,4.7-7.5c2.2,0,4.8,2.3,4.8,7.5S-224.4,411.6-226.7,411.6
	C-226.7,411.6-226.7,411.6-226.7,411.6z"/>
<path class="st0" d="M-178.6,397.1c-0.1-0.6-0.7-1.1-1.4-1.1c-0.7,0-1.4,0.5-1.4,1.2c0,0,0,0.1,0,0.1c0,0.2,0,0.4,0.1,0.5l4.8,13.5
	c0.3,0.7,1,1.1,1.8,0.8c0.4-0.1,0.7-0.4,0.8-0.8l4.8-13.5c0.1-0.2,0.1-0.3,0.1-0.5c0-0.8-0.7-1.4-1.5-1.3c-0.6,0-1.1,0.4-1.3,0.9
	l-3.5,10.3L-178.6,397.1L-178.6,397.1z"/>
<path class="st0" d="M-162.9,410.7v-13.2c0.1-0.8-0.5-1.6-1.3-1.7s-1.6,0.5-1.7,1.3c0,0.1,0,0.2,0,0.3v13.2
	c-0.1,0.8,0.5,1.6,1.3,1.7c0.8,0.1,1.6-0.5,1.7-1.3C-162.9,411-162.9,410.8-162.9,410.7L-162.9,410.7L-162.9,410.7z"/>
<path class="st0" d="M-189.9,411.6c-2.8,0-4.7-3-4.7-7.5s1.9-7.5,4.7-7.5c2.2,0,4.8,2.3,4.8,7.5S-187.6,411.6-189.9,411.6
	C-189.9,411.6-189.9,411.6-189.9,411.6z M-184.2,396.4c0-0.2-0.2-0.4-0.4-0.4s-0.4,0.2-0.4,0.4v3.4c-0.6-2.3-2.6-3.9-4.9-4
	c-3.5,0-5.5,3.8-5.5,8.3s1.9,8.3,5.5,8.3c2.3-0.2,4.3-1.8,4.9-4v3.4c0,0.2,0.2,0.4,0.4,0.4s0.4-0.2,0.4-0.4V396.4
	C-184.2,396.4-184.2,396.4-184.2,396.4z"/>
<path class="st0" d="M-152.2,397.4c0.1-0.7-0.4-1.3-1.2-1.4c-0.1,0-0.1,0-0.2,0h-0.1c-1.4,0-2.3,1.3-2.6,3.1v-1.5
	c0.1-0.8-0.5-1.6-1.3-1.7s-1.6,0.5-1.7,1.3c0,0.1,0,0.2,0,0.3v13.2c-0.1,0.8,0.5,1.6,1.3,1.7c0.8,0.1,1.6-0.5,1.7-1.3
	c0-0.1,0-0.2,0-0.3v-6.9c0-3,0.6-4.9,2.6-4.9l0,0c0.7,0,1.3-0.5,1.4-1.3C-152.2,397.6-152.2,397.5-152.2,397.4L-152.2,397.4
	L-152.2,397.4z"/>
<path class="st0" d="M-151.5,397.6c0,0.7,0.6,1.3,1.3,1.3c0,0,0,0,0,0h2v11.8c-0.1,0.8,0.5,1.6,1.3,1.7s1.6-0.5,1.7-1.3
	c0-0.1,0-0.2,0-0.3v-11.8h2.3c0.7,0,1.3-0.6,1.3-1.3c0-0.7-0.6-1.3-1.3-1.3h-2.3v-4.5c-0.1-0.8-0.8-1.4-1.7-1.3
	c-0.7,0.1-1.2,0.6-1.3,1.3v4.5h-2C-150.9,396.3-151.5,396.9-151.5,397.6C-151.5,397.6-151.5,397.6-151.5,397.6L-151.5,397.6
	L-151.5,397.6z"/>
<path class="st0" d="M-139.6,397.5v7.9c0,4.1,1.4,7,5,7c1.8,0,3.5-1.1,4.3-2.7v1.1c-0.1,0.8,0.5,1.6,1.3,1.7
	c0.8,0.1,1.6-0.5,1.7-1.3c0-0.1,0-0.2,0-0.3v-13.2c0.1-0.8-0.5-1.6-1.3-1.7c-0.8-0.1-1.6,0.5-1.7,1.3c0,0.1,0,0.2,0,0.3v7.1
	c0,2.9-1.1,5-3.4,5c-2,0-2.9-1.5-2.9-4.1v-8c0.1-0.8-0.5-1.6-1.3-1.7c-0.8-0.1-1.6,0.5-1.7,1.3
	C-139.6,397.3-139.6,397.4-139.6,397.5L-139.6,397.5L-139.6,397.5z"/>
<path class="st0" d="M-103.7,410.7v-21.6c-0.1-0.8-0.8-1.4-1.7-1.3c-0.7,0.1-1.2,0.6-1.3,1.3v21.6c-0.1,0.8,0.5,1.6,1.3,1.7
	s1.6-0.5,1.7-1.3C-103.7,411-103.7,410.8-103.7,410.7L-103.7,410.7z"/>
<path class="st0" d="M-121,404.1c0-3.3,1.2-5.6,3.5-5.6c2,0,3.4,2.3,3.4,5.6s-1.4,5.6-3.4,5.6C-119.8,409.7-121,407.4-121,404.1
	L-121,404.1z M-124,404.1c0,4.7,2.1,8.3,5.8,8.3c1.8,0,3.4-1.1,4.2-2.7v1.1c-0.1,0.8,0.5,1.6,1.3,1.7s1.6-0.5,1.7-1.3
	c0-0.1,0-0.2,0-0.3v-13.2c0.1-0.8-0.5-1.6-1.3-1.7s-1.6,0.5-1.7,1.3c0,0.1,0,0.2,0,0.3v1.2c-0.7-1.7-2.3-2.9-4.2-2.9
	C-121.9,395.9-124,399.4-124,404.1L-124,404.1L-124,404.1z"/>
</svg>
